<svg width="46" height="38" viewBox="0 0 46 38" fill="none" xmlns="http://www.w3.org/2000/svg">
<path d="M19.8566 12.1438L20.2514 12.5473C17.6682 13.3747 15.3251 14.2465 12.9975 15.6572C12.6179 16.9901 12.5511 18.7421 12.6743 20.1176C13.0101 23.8136 14.8117 27.2231 17.677 29.5826C20.4854 31.8806 24.0878 32.9771 27.7004 32.6321C31.8858 32.2076 34.9815 30.2516 37.5738 27.0311C33.965 27.7016 30.105 27.5877 26.4867 27.0432C33.7889 24.9957 39.2268 23.4311 45.4911 18.6866C45.0254 23.9891 43.7052 28.3332 39.8597 32.2092C36.3387 35.8017 31.5123 37.8131 26.4822 37.7861C21.254 37.7921 16.6553 35.9111 12.947 32.2001C9.4637 28.7066 7.52 23.9666 7.54745 19.0331C2.9504 22.7381 2.4449 26.4521 8.9528 28.0331C6.51875 28.5206 4.2095 28.7397 1.88495 27.6402C-0.333251 26.5902 -0.453402 24.2306 0.795498 22.3436C4.80275 16.2868 13.2262 13.8788 19.8566 12.1438Z" fill="white"/>
<path d="M25.4544 0.0301088C26.9039 -0.0538912 28.3583 0.0380489 29.7857 0.303699C35.7947 1.4317 39.5702 4.6039 42.9218 9.49855C40.5216 9.28735 38.7702 9.2455 36.387 9.25705C31.6836 5.40475 27.714 4.1818 21.7311 5.9644C17.7077 7.54075 17.3618 8.83075 14.4564 11.5008C13.9178 11.9958 9.17885 13.7391 8.08025 14.1984C10.5185 5.89615 16.7871 0.672559 25.4544 0.0301088Z" fill="white"/>
<path d="M30.0867 10.2825C30.2544 10.4251 30.887 11.2405 31.0886 11.4621C32.5601 13.08 33.3237 13.0851 35.3219 13.3566C32.9267 14.6905 32.4153 15.8313 32.3748 18.4948C30.867 16.2715 30.1611 15.6684 27.4316 15.3429C29.2587 13.8301 30.1811 13.1661 30.0956 10.5006L30.0867 10.2825Z" fill="white"/>
<path d="M25.298 8.43872C26.0951 9.09287 26.6344 9.24318 27.4055 9.80313C26.819 10.5452 26.56 10.8078 26.3246 11.763C26.1527 11.6814 24.6602 10.7216 24.5207 10.4415C24.8839 9.44088 25.1486 9.73247 25.298 8.43872Z" fill="white"/>
<path d="M37.0418 15.5171C37.645 16.0773 37.9235 16.2734 38.6892 16.5989L38.9531 16.7084C38.4445 17.2617 38.1326 17.8587 37.991 18.5937L37.8974 18.6552C37.3976 18.1527 36.8228 17.8197 36.2283 17.4312C36.4178 16.8027 36.8207 16.3389 37.0418 15.5171Z" fill="white"/>
<path d="M19.8566 12.1439C20.6566 11.9513 22.3892 11.4792 23.1553 11.5656L22.888 11.7557L22.9538 11.7231L22.8835 11.522L22.8208 11.78L20.2514 12.5474L19.8566 12.1439Z" fill="white"/>
</svg>
